<?xml version="1.0" encoding="utf-8"?>
<!-- Generator: Adobe Illustrator 26.0.0, SVG Export Plug-In . SVG Version: 6.00 Build 0)  -->
<svg version="1.1" id="Layer_1" xmlns="http://www.w3.org/2000/svg" xmlns:xlink="http://www.w3.org/1999/xlink" x="0px" y="0px"
	 viewBox="0 0 960 600" style="enable-background:new 0 0 960 600;" xml:space="preserve">
<style type="text/css">
	.st0{fill:#EEA6A0;stroke:#000000;stroke-miterlimit:10;}
	.st1{fill:#FFFFFF;stroke:#000000;stroke-miterlimit:10;}
	.st2{fill:#C1DE9A;stroke:#000000;stroke-miterlimit:10;}
	.st3{font-family:'Consolas';}
	.st4{font-size:12px;}
	.st5{fill:none;stroke:#54B948;stroke-miterlimit:10;}
	.st6{fill:#54B948;}
	.st7{fill:none;stroke:#C33A27;stroke-miterlimit:10;}
	.st8{fill:#C33A27;}
	.st9{fill:none;stroke:#2E2D75;stroke-miterlimit:10;}
	.st10{fill:#2E2D75;}
	.st11{fill:none;stroke:#000000;stroke-miterlimit:10;}
	.st12{fill:#DCEDD4;stroke:#000000;stroke-miterlimit:10;}
	.st13{fill:none;stroke:#3A8A41;stroke-miterlimit:10;}
	.st14{fill:#3A8A41;}
	.st15{font-family:'AdobeSongStd-Light-GBpc-EUC-H';}
	.st16{font-size:24px;}
</style>
<g>
	<g>
		<rect x="209.7" y="423.84" class="st0" width="46.15" height="40.83"/>
		<rect x="255.85" y="423.84" class="st1" width="46.15" height="40.83"/>
		<rect x="302" y="423.84" class="st2" width="46.15" height="40.83"/>
		<text transform="matrix(1 0 0 1 225.2101 447.0104)" class="st3 st4">pre</text>
		<text transform="matrix(1 0 0 1 315.2576 446.7585)" class="st3 st4">next</text>
		<text transform="matrix(1 0 0 1 268.0037 446.8786)" class="st3 st4">data</text>
	</g>
	<g>
		<rect x="383.66" y="423.84" class="st0" width="46.15" height="40.83"/>
		<rect x="429.81" y="423.84" class="st1" width="46.15" height="40.83"/>
		<rect x="475.97" y="423.84" class="st2" width="46.15" height="40.83"/>
		<text transform="matrix(1 0 0 1 399.1746 447.0104)" class="st3 st4">pre</text>
		<text transform="matrix(1 0 0 1 489.222 446.7585)" class="st3 st4">next</text>
		<text transform="matrix(1 0 0 1 441.9681 446.8786)" class="st3 st4">data</text>
	</g>
	<g>
		<rect x="557.63" y="423.84" class="st0" width="46.15" height="40.83"/>
		<rect x="603.78" y="423.84" class="st1" width="46.15" height="40.83"/>
		<rect x="649.93" y="423.84" class="st2" width="46.15" height="40.83"/>
		<text transform="matrix(1 0 0 1 573.139 447.0104)" class="st3 st4">pre</text>
		<text transform="matrix(1 0 0 1 663.1866 446.7585)" class="st3 st4">next</text>
		<text transform="matrix(1 0 0 1 615.9327 446.8786)" class="st3 st4">data</text>
	</g>
	<g>
		<g>
			<line class="st5" x1="342.83" y1="435.67" x2="376.6" y2="435.67"/>
			<g>
				<polygon class="st6" points="383.66,435.67 373.71,439.74 376.07,435.67 373.71,431.61 				"/>
			</g>
		</g>
	</g>
	<g>
		<g>
			<line class="st7" x1="355.22" y1="452.83" x2="390.76" y2="452.83"/>
			<g>
				<polygon class="st8" points="348.16,452.83 358.11,456.9 355.75,452.83 358.11,448.77 				"/>
			</g>
		</g>
	</g>
	<g>
		<g>
			<line class="st5" x1="514.69" y1="435.67" x2="550.56" y2="435.67"/>
			<g>
				<polygon class="st6" points="557.63,435.67 547.68,439.74 550.04,435.67 547.68,431.61 				"/>
			</g>
		</g>
	</g>
	<g>
		<g>
			<line class="st7" x1="529.18" y1="452.83" x2="569.46" y2="452.83"/>
			<g>
				<polygon class="st8" points="522.12,452.83 532.07,456.9 529.71,452.83 532.07,448.77 				"/>
			</g>
		</g>
	</g>
	<g>
		<g>
			<polyline class="st5" points="691.35,444 725.08,444 725.08,403.67 186.62,403.67 186.62,435.67 202.64,435.67 			"/>
			<g>
				<polygon class="st6" points="209.7,435.67 199.75,439.74 202.11,435.67 199.75,431.61 				"/>
			</g>
		</g>
	</g>
	<g>
		<g>
			<polyline class="st7" points="215.02,452.83 186.62,452.83 186.62,483.01 725.08,483.01 725.08,449.41 703.15,449.41 			"/>
			<g>
				<polygon class="st8" points="696.09,449.41 706.04,445.34 703.68,449.41 706.04,453.47 				"/>
			</g>
		</g>
	</g>
	<g>
		<g>
			<line class="st9" x1="278.93" y1="364.66" x2="278.93" y2="416.78"/>
			<g>
				<polygon class="st10" points="278.93,423.84 274.86,413.89 278.93,416.25 282.99,413.89 				"/>
			</g>
		</g>
	</g>
	<g>
		<g>
			<line class="st9" x1="629.81" y1="364.66" x2="629.81" y2="416.78"/>
			<g>
				<polygon class="st10" points="629.81,423.84 625.75,413.89 629.81,416.25 633.88,413.89 				"/>
			</g>
		</g>
	</g>
	<text transform="matrix(1 0 0 1 265.4146 361.8826)" class="st3 st4">head</text>
	<text transform="matrix(1 0 0 1 616.5684 361.8826)" class="st3 st4">tail</text>
</g>
<g>
	<g>
		<g>
			<rect x="280.78" y="153.3" class="st11" width="39.64" height="28.99"/>
			<rect x="320.43" y="153.3" class="st12" width="39.64" height="28.99"/>
			<text transform="matrix(1 0 0 1 289.1747 171.9994)" class="st3 st4">data</text>
			<text transform="matrix(1 0 0 1 326.4002 171.8915)" class="st3 st4">next</text>
		</g>
		<g>
			<rect x="386.36" y="153.3" class="st11" width="39.64" height="28.99"/>
			<rect x="426.01" y="153.3" class="st12" width="39.64" height="28.99"/>
			<text transform="matrix(1 0 0 1 394.7508 171.9994)" class="st3 st4">data</text>
			<text transform="matrix(1 0 0 1 431.9763 171.8915)" class="st3 st4">next</text>
		</g>
		<g>
			<rect x="491.94" y="153.3" class="st11" width="39.64" height="28.99"/>
			<rect x="531.58" y="153.3" class="st12" width="39.64" height="28.99"/>
			<text transform="matrix(1 0 0 1 500.3269 171.9994)" class="st3 st4">data</text>
			<text transform="matrix(1 0 0 1 537.5524 171.8915)" class="st3 st4">next</text>
		</g>
		<g>
			<rect x="597.51" y="153.3" class="st11" width="39.64" height="28.99"/>
			<rect x="637.16" y="153.3" class="st12" width="39.64" height="28.99"/>
			<text transform="matrix(1 0 0 1 605.903 171.9994)" class="st3 st4">data</text>
			<text transform="matrix(1 0 0 1 643.1285 171.8915)" class="st3 st4">next</text>
		</g>
		<g>
			<polyline class="st11" points="696.99,195.58 696.99,166.89 677.25,166.89 			"/>
			<g>
				<line class="st11" x1="685.17" y1="195.58" x2="709.34" y2="195.58"/>
				<line class="st11" x1="688.44" y1="200.81" x2="706.08" y2="200.81"/>
				<line class="st11" x1="692.71" y1="206.03" x2="701.81" y2="206.03"/>
			</g>
		</g>
		<g>
			<g>
				<line class="st13" x1="355.24" y1="167.8" x2="379.3" y2="167.8"/>
				<g>
					<polygon class="st14" points="386.36,167.8 376.41,171.86 378.77,167.8 376.41,163.73 					"/>
				</g>
			</g>
		</g>
		<g>
			<g>
				<line class="st13" x1="460.82" y1="167.8" x2="484.88" y2="167.8"/>
				<g>
					<polygon class="st14" points="491.94,167.8 481.99,171.86 484.35,167.8 481.99,163.73 					"/>
				</g>
			</g>
		</g>
		<g>
			<g>
				<line class="st13" x1="567.32" y1="167.8" x2="591.38" y2="167.8"/>
				<g>
					<polygon class="st14" points="598.44,167.8 588.49,171.86 590.85,167.8 588.49,163.73 					"/>
				</g>
			</g>
		</g>
	</g>
	<g>
		<g>
			<line class="st13" x1="230.08" y1="169.8" x2="273.72" y2="169.8"/>
			<g>
				<polygon class="st14" points="280.78,169.8 270.84,173.86 273.2,169.8 270.84,165.73 				"/>
			</g>
		</g>
	</g>
	<text transform="matrix(1 0 0 1 202.3551 172.1073)" class="st3 st4">head</text>
</g>
<text transform="matrix(1 0 0 1 419.8501 243.2427)" class="st15 st16">单链表</text>
<text transform="matrix(1 0 0 1 419.8501 513.6572)" class="st15 st16">双链表</text>
</svg>
